<svg version="1.2" xmlns="http://www.w3.org/2000/svg" viewBox="0 0 4248 3520" width="4248" height="3520"><style>.a{fill:#4c5f32}</style><path class="a" d="m3136.7 3420.8c-31.1-3.8-42.5-10.6-34.1-20.1 3-4.2 11.3-6.1 24.6-6.1 11.4 0 28.5-1.5 38.7-3.8 9.9-1.9 31.1-5.3 46.6-7.9 141.1-22 305.4-79.7 421.8-148.7 105.5-62.2 237.4-189.7 303.8-292.8 82-127.9 113.4-290.2 97.5-499.2-16.3-207.4-85.3-489.6-252.2-1031.3-11.8-38.6-28.5-92.9-37.2-120.6l-15.5-50.8-15.6 2.7c-22.8 3-27.3-3.4-22-30.4 4.9-22.7 30.7-90.2 53.5-139.6l15.5-33.3 14.1 1.1c9.8 0.8 16.3 4.2 21.2 10.6 3.8 5.3 19.3 57.7 35.7 121.4 77.3 303.4 102.4 391.8 166.8 582.2 94.9 280.7 154 480.2 175.7 590.9 44.7 228.7 24.6 421.8-62.2 594.4-63.8 125.9-137 211.2-269.7 314-8.7 6.8-16.7 12.2-17.8 12.2-1.2 0-9.5 4.9-18.6 11-80.1 53.4-206.4 105.8-306.5 127-26.2 5.7-55.7 12.2-66.4 14.4-23.5 5.3-257.1 7.6-297.7 2.7z"/><path class="a" d="m1265.3 3155.3c-105.1-7.6-246.9-37.2-337.9-69.8-205.2-74.4-345.6-199.5-400.9-358.1-19.4-55.7-39.5-83-57.7-78.5-4.9 1.2-19.3 12.2-31.5 24.3-25 24.3-130.1 143-228.7 257.9-36 42.1-66.4 76.2-67.1 75.5-0.8-0.8 12.5-31.9 29.6-69.4 39-86.5 63.7-144.9 99.7-234 48.9-121.8 95.2-201.1 147.6-253.8 52.3-51.9 92.5-64.8 136.9-43.2 26.5 12.9 41.3 30.7 76.2 92.2 49.7 86.8 88 136.1 147.6 190.7 136.5 124.4 317.4 185.9 546.5 185.9 93.7-0.4 235.9-13.3 311-28.5 253-51.5 450.6-139.5 661.9-295 91.4-67.2 214.6-175.7 217.7-191.6 0.7-5.7 3-37.9 4.1-71.7l2.7-61.8h-8.3c-8.4 0-23.9 9.1-72.1 41.7-11.4 7.6-46.3 28.9-77.8 47.4-31 18.3-61 36.1-66.3 39.9-5.3 3.4-15.6 8.3-22.8 11.4-7.2 2.6-14.8 6.4-17.1 7.9-8.3 6.1-75.4 41.4-78.5 41.4-2.3 0-8.3 3-13.6 6.8-23.5 16.3-177.5 77.4-262.5 104.7-89.9 28.4-197.2 51.9-280.7 61.4-62.5 6.8-182.8 6.8-243.8-0.4-128.6-15.1-241.3-52.3-313.3-103.1-75.5-53.5-137-138.9-165.4-228.8-36.4-116.4-50.4-272.3-34.1-383 21.2-144.9 88.7-301.6 174.4-404.3 151.4-181.3 442.7-354.7 782.1-464.7 109.2-35.6 114.9-37.9 114.9-43.2 0-5.7-18.5-11.4-60.7-18.6-62.5-10.6-128.2-15.5-218-15.2-97.1 0-130.1 3.8-193.5 22-70.9 20.5-198.4 86.5-289.8 149.9-28.8 19.7-42.4 23.5-57.6 15.5-16.3-8.7-9.9-24.7 46.6-118 29.2-48.9 64.9-108.1 78.6-131.2 13.6-23.5 28-44 32.2-45.1 13.3-4.6 15.2 3.4 9.9 44-2.7 20.8-3.8 39.1-2.3 40.6 1.5 1.5 15.1-3.4 29.9-11.4 197.6-104.7 267.1-129 380.1-134.3 81.9-3.4 128.6 4.9 284.4 52 167.7 50.4 215.5 56.1 253 29.9 27.7-19.7 35.7 2.7 11.8 31.5-26.6 31.5-93.3 107-112.7 127.5-25.4 26.9-42.1 34.5-114.1 53.8-117.6 30.7-144.6 38.7-187.8 53.9-89.1 31.8-214.3 92.5-307.2 150.2-22 13.6-48.2 29.9-58.8 36-10.2 6.4-29.6 19.7-42.5 29.2-12.9 9.5-41.7 30-64.5 46.3-158.5 111.5-237 193.4-291.3 304.5-41.3 83.9-56.5 149.5-56.1 244.7 0 69.8 7.6 116 27.7 171.4 61.8 169.2 226.4 282.2 464.6 318.2 64.5 9.9 195.7 13.7 262.1 7.6 165-15.1 332.3-55 469.2-110.7 115.3-47.4 286-146.4 290.5-168.4 0.8-3.8 0-28.1-1.5-53.9l-2.6-46.6h-9.9c-5.3 0-13.3 3.4-17.4 7.2-4.6 4.2-12.2 9.8-17.5 12.5-5.3 2.7-30.3 19-55.8 36.4-25.4 17.1-47 31.1-48.1 31.1-0.8 0-15.2 8.3-31.9 19-53.5 33-161.6 83-221.9 102.8-19.3 6-47.8 15.5-63.3 20.4-51.6 16.7-127.8 31.9-181.3 36.1-28.5 2.3-72.4 5.7-97.5 7.9-25 2.3-59.2 5-75.8 6.1-28.5 1.9-30 1.5-24.3-4.5 4.2-4.2 19.3-8 49.3-11.8 48.2-5.7 52-6.5 100.1-17.5 93.7-21.6 197.6-59.5 277.3-102 146.4-77 311.4-196.5 393.7-284.4 37.5-40.6 34.9-30.4 28.8-120.3-9.5-130.1-52.3-416.8-72.8-487-5.3-17.4-12.9-18.6-36.8-4.9-9.1 5.3-18.2 8.3-20.1 6.4-3.8-3.7 48.6-161.2 63.7-192.3 18.2-37.1 44.8-62.2 60-56.5 8.3 3.4 19.7 33.4 34.1 92.6 22.8 93.3 34.1 172.6 63 436.2 8.3 78.1 16.3 142.6 17 143.7 3.4 3.4 6.9-3.8 23.5-51.6 61.9-177.5 69.1-208.2 72.1-304.5 1.9-57.3 0.8-72.9-6.1-113.4-8.7-49.7-8.3-60.7 4.6-85.8 10.2-20.8 100.5-141.4 108.8-146 12.2-6.4 21.7-4.2 31.9 8 9.1 10.6 9.9 14.4 9.9 47v35.3l14.8 5.7c32.2 13.2 75.1 18.6 127 17 56.9-2.2 84.2-9.4 123.7-32.2 34.1-20.1 86.8-73.2 100.5-101.3 19.3-39.4 16.3-85.7-5.3-85.7-3.8 0-20.5 6.1-36.8 13.7-83.1 38.3-156.3 42.1-223.8 11.3-36.8-17-55-56.1-55-119.8 0-67.9 15.2-105.8 76.6-187.8 41-55 67.9-76.6 108.1-85.3 54.3-12.1 95.2 17.8 162.7 119.5 92.2 138 123.7 251.1 100.9 360.3-14.4 67.9-39.8 116.1-89.9 168.4-46.6 49.3-91 75.9-157 94.1-40.2 11-105.1 11.7-184.7 2.6-29.6-3.4-56.5-5.3-59.6-4.2-4.5 1.9-6 8-6 26.2 0 84.6-21.3 210.5-50.1 298.9-33 100.5-78.9 185.5-146.8 270.4l-26.5 33.4 1.9 38.7c2.6 52.7 5.3 78.5 8.7 78.5 3.8 0 45.1-43.2 72.1-75.9 13.2-15.5 29.2-32.2 35.6-36.8 12.5-9.1 25.4-11.3 25.4-4.9 0 15.2-65.6 110-118.3 171.8-19 22-22 27.7-22.4 41.8 0 8.7-1.5 35.6-3 59.5-1.9 26.9-1.9 45.1 0.3 47.4 9.9 10.3 166.9-178.2 235.6-282.6 51.6-78.5 71.3-126.3 100.1-240.8 11.4-46.7 13.3-59.6 13.7-106.2l0.7-53.1 13.3-22.8c15.2-25.4 29.2-34.9 41.7-28.4 4.2 2.3 17.5 12.9 30 23.9 51.6 45.9 95.2 61.4 163.1 58.8l40.9-1.5 52.4-25.5c28.4-14 56.1-25.4 61-25.4 11.8 0 18.2 15.2 14.8 34.2-7.2 40.2-52.3 166.1-66.7 186.2-16.7 23.9-46.3 32.2-198.4 56.5-25 4.2-47.4 9.5-50.1 12.2-2.6 2.6-13.6 25.4-24.2 50.4-71.4 166.9-205.6 381.2-333.4 532.1-64.5 76.3-58.4 66.8-53.5 83.1 9.1 28.1 38.3 79.7 56.5 100.1 44.8 50.1 108.9 63 204.1 41 97.8-22.4 132.7-78.9 145.2-234.8 2.3-27.7 6.5-55.4 9.1-62.2 6.9-15.5 20.9-28.1 35.3-31.1 14.8-3 19 3 35.6 49.7 15.2 43.6 23.2 59.6 39.9 77.4 18.6 20.8 42.8 31.1 77.7 33.4 41 3 63.7-3.5 86.1-23.9 30.7-27.4 40.2-56.2 54.3-170 6-48.9 18.5-75.8 36.4-77.3 14-1.6 16.3 1.5 35.2 54.2 16.4 45.1 27.7 66.8 41.8 80.8 20.4 20.5 55.3 20.9 75.4 0.8 19.8-20.1 23.9-39.1 26.6-127.1 2.6-88 6.1-102.4 23.1-102.4 11.8 0 22 19.3 35.7 67.1 27.7 96.4 28.4 224.9 1.9 303.8-19.4 56.9-46.7 95.2-81.6 112.3-24.2 12.1-65.2 14.8-101.2 6.1-16-3.8-31.1-5.7-34.2-4.6-2.6 1.2-13.6 17.1-23.9 35.3-33.7 60.7-82.7 103.5-135.8 119.8-23.5 7.2-29.9 7.6-53.4 4.2-32.3-4.5-63-18.6-90.7-41.3-11.4-9.1-23.1-16.7-26.2-16.7-8.7 0-15.9 10.6-49.3 74.3-37.5 72.1-47.8 87.6-77.3 115.7-46.7 45.1-84.2 60.3-148 60.3-138.8-0.4-228.3-85.3-290.1-275.7-17.5-53.5-21.2-61.9-28.1-61.9-4.1 0-19.7 10.7-34.5 23.9-53.5 46.7-69.8 60-131.2 106.2-76.3 57.7-207.9 148-290.9 199.9-153.3 96-307.6 163.9-468.4 206.7-120.3 31.9-239 41.8-379 31.9zm1921.5-1463.7c70.9-3.8 81.9-7.2 91.8-28 11.8-25.1 11-25.8-34.5-22.8-36.8 1.9-61.1 0.4-111.9-8.3l-14-2.3-6.1 20.1c-3 11.4-6.8 26.9-8.3 35.3-2.3 14.4-2.3 14.4 8.7 12.1 6-1.1 39.4-3.8 74.3-6.1zm-38.3-885.6c9.5-3.4 23.1-10.6 30.3-16.7 11.4-9.5 12.2-11.8 8.4-20.1-7.2-15.5-42.5-55.8-54.6-61.8-16.7-8.7-32.7-2.3-57.3 23.9-42.5 44.7-43.6 66.4-3.8 79.3 17.1 5.6 53.1 3.7 77-4.6z"/><path class="a" d="m193.1 2309.1c-46.7-34.1-96.4-70.2-110.8-80-14.8-10.7-25.4-20.9-25.4-25.1 0-3.4 13.3-26.9 29.6-51.9 16.3-24.7 43.6-67.9 61-95.6 17.5-27.7 33.4-51.2 35.7-52.7 1.9-1.2 45.5 26.1 97.1 61 51.6 34.5 96 63 99 63 3 0 28.8-34.5 56.9-76.6 56.5-84.6 66.7-97.9 73.9-97.9 2.7 0 25.8 15.2 51.6 33.4 25.8 18.2 72.1 50.8 103.2 72.4 30.7 21.7 56.9 40.6 58 42.5 1.1 1.9 0 6.5-2.3 10.6-3.8 7.2-120.2 178.7-123.2 182.1-2.3 2.3-23.9-12.1-95.6-64.9-34.2-24.6-64.9-44.7-68.3-44.7-4.2 0.3-33 33.7-75.1 87.6-37.5 48.1-70.9 89.9-74.3 92.9-5.7 4.9-15.2-0.8-91.1-56.1z"/><path class="a" d="m3649.5 985.4c-3.8-4.9-1.2-10.3 16.3-31.1 11.4-14 20.9-27.3 20.9-28.9 0-1.9-8-11.7-18.3-21.6-19.7-20.1-27.3-38.3-27.3-67.9 0-25.7 11.4-46.2 41-74.3 57.3-53.9 87.2-64.1 122.9-41.3 34.1 21.6 32.2 33-9.9 67.8-36 30-40.6 37.6-28.4 47.1 11.7 9.8 22.4 6.4 48.5-14.8 31.1-25.4 35.7-26.6 59.2-12.2 32.6 19.8 48.2 34.6 45.1 42.9-1.5 3.8-16.3 13.3-33.3 21.2-18.6 8.8-42.9 24.3-61.1 39.5-62.6 52.3-102 73.2-146 77-19.4 1.5-25.8 0.8-29.6-3.4z"/><path class="a" d="m2952.7 364.5c-54.2-35.3-100.1-66.8-102-69.8-2.6-4.2 4.9-19 30.3-58 18.6-28.9 45.9-71 60.7-94.1 14.4-23.1 29.2-42.5 32.7-43.2 4.5-0.8 206.7 118.3 216.1 127.4 3.8 3.8-128.5 201.8-134.6 201.8-2.3 0-48.9-29.2-103.2-64.1z"/></svg>
